<?xml version="1.0" encoding="UTF-8"?>
<svg id="Capa_2" data-name="Capa 2" xmlns="http://www.w3.org/2000/svg" viewBox="0 0 296.1 421.9">
  <defs>
    <style>
      .cls-1 {
        fill: #6a8474;
      }

      .cls-1, .cls-2 {
        stroke-width: 0px;
      }

      .cls-2 {
        fill: #fbd2b6;
      }
    </style>
  </defs>
  <g id="Capa_1-2" data-name="Capa 1">
    <path class="cls-2" d="m148.05,421.9c49.81,0,90.18-40.38,90.18-90.18s-40.37-90.18-90.18-90.18-90.18,40.38-90.18,90.18c0,49.8,40.38,90.17,90.18,90.18Zm6.2-148.92c.12.09.23.17.35.27.21.17.41.36.62.56,0,0,.02.01.02.02l45.06,45.06c3.97,3.97,3.97,10.39,0,14.35-3.96,3.96-10.39,3.96-14.35,0l-27.75-27.75v76.96c0,5.6-4.54,10.15-10.15,10.15s-10.14-4.55-10.14-10.15v-76.96l-27.75,27.75c-3.96,3.97-10.39,3.97-14.35,0-3.96-3.96-3.96-10.38,0-14.34l45.07-45.07c.21-.22.42-.41.64-.58.09-.08.18-.15.28-.23.07-.06.15-.12.23-.16,1.69-1.25,3.76-2,6.02-2,2.27,0,4.35.75,6.04,2,.06.04.11.08.16.12Z"/>
    <g>
      <path class="cls-1" d="m147.41,215.17c4.53-3.42,5.44-9.86,2.01-14.4-3.41-4.53-9.86-5.44-14.4-2.02-8.74,6.59-13.9,17.21-14.14,29.13-.1,5.09.7,10.07,2.26,14.71,6.69-1.87,13.69-3,20.9-3.3-1.73-3.19-2.68-7.04-2.6-11,.11-5.56,2.29-10.35,5.96-13.12Z"/>
      <path class="cls-1" d="m148.05,159.78c-38.51,0-69.83,31.33-69.83,69.83,0,11.93,3.01,23.17,8.31,33,5.17-4.61,10.86-8.64,16.97-12-3.02-6.37-4.71-13.49-4.71-21,0-27.17,22.1-49.27,49.27-49.27s49.27,22.1,49.27,49.27c0,7.51-1.69,14.62-4.71,21,6.11,3.36,11.8,7.4,16.97,12,5.3-9.83,8.31-21.07,8.31-33,0-38.51-31.33-69.83-69.83-69.83Z"/>
      <path class="cls-1" d="m260.41,134.63h-19.89c-9,0-17.47-3.51-23.84-9.87l-8.93-8.93c-7.15-7.15-16.65-11.08-26.76-11.08h-66.05c-10.65,0-20.86,4.52-28.02,12.41l-5.83,6.42c-6.38,7.03-15.47,11.05-24.96,11.05h-20.45c-19.68,0-35.68,16.01-35.68,35.68v125.72c0,19.68,16.01,35.68,35.68,35.68h19.83c0-7.07.8-13.95,2.3-20.56h-22.13c-8.34,0-15.12-6.79-15.12-15.13v-125.72c0-8.34,6.78-15.12,15.12-15.12h20.45c15.28,0,29.93-6.49,40.19-17.8l5.82-6.42c3.27-3.6,7.94-5.67,12.8-5.67h66.05c4.61,0,8.95,1.8,12.22,5.06l8.93,8.93c10.26,10.25,23.88,15.89,38.38,15.89h19.89c8.34,0,15.12,6.78,15.12,15.12v125.72c0,8.34-6.78,15.12-15.12,15.12h-22.13c1.5,6.61,2.3,13.49,2.3,20.56h19.83c19.67,0,35.68-16.01,35.68-35.69v-125.72c0-19.68-16.01-35.68-35.68-35.68Z"/>
      <path class="cls-1" d="m148.05,71.21c6.44,0,11.66-5.22,11.66-11.66V11.66c0-6.44-5.22-11.66-11.66-11.66s-11.66,5.22-11.66,11.66v47.88c0,6.44,5.22,11.66,11.66,11.66Z"/>
      <path class="cls-1" d="m227.96,100.83c2.99,0,5.97-1.14,8.25-3.42l33.85-33.86c4.55-4.55,4.55-11.94,0-16.5-4.55-4.55-11.94-4.55-16.5,0l-33.85,33.86c-4.55,4.55-4.55,11.94,0,16.5,2.28,2.28,5.26,3.42,8.25,3.42Z"/>
      <path class="cls-1" d="m59.89,97.41c2.28,2.27,5.26,3.41,8.25,3.41s5.97-1.14,8.25-3.41c4.56-4.56,4.56-11.94,0-16.5l-33.85-33.86c-4.55-4.55-11.94-4.56-16.5,0s-4.56,11.94,0,16.5l33.85,33.86Z"/>
    </g>
  </g>
</svg>